<svg width="21" height="22" viewBox="0 0 21 22" fill="none" xmlns="http://www.w3.org/2000/svg">
<path fill-rule="evenodd" clip-rule="evenodd" d="M12.9423 4.28403C12.6502 4.17822 12.3277 4.32922 12.2219 4.6213C12.1161 4.91339 12.2671 5.23595 12.5591 5.34176C13.4842 5.6769 14.3526 6.21531 15.0956 6.95832C15.8573 7.71996 16.4039 8.61336 16.737 9.5646C16.8397 9.8578 17.1606 10.0123 17.4538 9.90958C17.747 9.8069 17.9015 9.48598 17.7988 9.19278C17.4111 8.08556 16.7748 7.04646 15.8911 6.16283C15.0291 5.30085 14.0192 4.67415 12.9423 4.28403ZM15.7975 17.7923C14.3318 19.258 10.5781 17.8808 7.41343 14.7161C4.24877 11.5515 2.87152 7.79778 4.33725 6.33204L5.30233 5.36696C5.96857 4.70072 7.06638 4.71833 7.75435 5.4063L9.24917 6.90111C9.93714 7.58908 9.95475 8.68689 9.28851 9.35314L9.08122 9.56043C8.7215 9.92014 8.68631 10.5004 9.02055 10.9055C9.34295 11.2962 9.69053 11.6853 10.0674 12.0622C10.4442 12.439 10.8334 12.7866 11.2241 13.109C11.6291 13.4432 12.2094 13.408 12.5691 13.0483L12.7764 12.841C13.4427 12.1748 14.5405 12.1924 15.2284 12.8804L16.7233 14.3752C17.4112 15.0632 17.4288 16.161 16.7626 16.8272L15.7975 17.7923ZM12.2347 7.14027C12.3589 6.85548 12.6903 6.72523 12.9751 6.84935C13.4567 7.05924 13.9073 7.36099 14.2998 7.75357C14.7159 8.16968 15.03 8.65087 15.2407 9.16501C15.3586 9.45246 15.2211 9.781 14.9336 9.89884C14.6462 10.0167 14.3176 9.87918 14.1998 9.59173C14.0446 9.2131 13.8131 8.85786 13.5043 8.54906C13.2129 8.25766 12.8802 8.03521 12.5256 7.88066C12.2409 7.75654 12.1106 7.42505 12.2347 7.14027Z" fill="white"/>
</svg>
