<svg width="21" height="22" viewBox="0 0 21 22" fill="none" xmlns="http://www.w3.org/2000/svg">
<path fill-rule="evenodd" clip-rule="evenodd" d="M2.75 9.0625C2.75 6.68077 4.68077 4.75 7.0625 4.75H14.5625C16.9442 4.75 18.875 6.68077 18.875 9.0625V13.5625C18.875 15.9442 16.9442 17.875 14.5625 17.875H7.0625C4.68077 17.875 2.75 15.9442 2.75 13.5625V9.0625ZM6.65 8.6125C6.40147 8.4261 6.0489 8.47647 5.8625 8.725C5.6761 8.97353 5.72647 9.3261 5.975 9.5125L9.575 12.2125C10.3083 12.7625 11.3167 12.7625 12.05 12.2125L15.65 9.5125C15.8985 9.3261 15.9489 8.97353 15.7625 8.725C15.5761 8.47647 15.2235 8.4261 14.975 8.6125L11.375 11.3125C11.0417 11.5625 10.5833 11.5625 10.25 11.3125L6.65 8.6125Z" fill="white"/>
</svg>
