<svg width="25" height="25" viewBox="0 0 25 25" fill="none" xmlns="http://www.w3.org/2000/svg">
<path d="M20.5002 11.792H22.5002C22.5002 6.66197 18.6272 2.79297 13.4902 2.79297V4.79297C17.5522 4.79297 20.5002 7.73597 20.5002 11.792Z" fill="#585981"/>
<path d="M13.4998 8.79296C15.6028 8.79296 16.4998 9.68996 16.4998 11.793H18.4998C18.4998 8.56796 16.7248 6.79296 13.4998 6.79296V8.79296ZM16.9218 14.236C16.7296 14.0613 16.4771 13.9682 16.2176 13.9762C15.9581 13.9842 15.7118 14.0928 15.5308 14.279L13.1378 16.74C12.5618 16.63 11.4038 16.269 10.2118 15.08C9.01979 13.887 8.65879 12.726 8.55179 12.154L11.0108 9.75996C11.1972 9.57909 11.3059 9.33279 11.314 9.07317C11.322 8.81356 11.2287 8.561 11.0538 8.36896L7.35879 4.30596C7.18384 4.11332 6.94067 3.99647 6.68095 3.98022C6.42122 3.96398 6.16539 4.04962 5.96779 4.21896L3.79779 6.07996C3.6249 6.25348 3.52171 6.48441 3.50779 6.72896C3.49279 6.97896 3.20679 12.901 7.79879 17.495C11.8048 21.5 16.8228 21.793 18.2048 21.793C18.4068 21.793 18.5308 21.787 18.5638 21.785C18.8083 21.7713 19.0391 21.6676 19.2118 21.494L21.0718 19.323C21.2413 19.1255 21.3271 18.8697 21.311 18.61C21.295 18.3503 21.1783 18.1071 20.9858 17.932L16.9218 14.236Z" fill="#585981"/>
</svg>
